<svg width="21" height="20" viewBox="0 0 21 20" fill="none" xmlns="http://www.w3.org/2000/svg">
<path d="M18.6001 18V9C18.6001 5.13401 15.4661 2 11.6001 2H2.6001" stroke="url(#paint0_linear_184_8)" stroke-opacity="0.9" stroke-width="4" stroke-linecap="round"/>
<path d="M2.6001 2V11C2.6001 14.866 5.7341 18 9.6001 18H18.6001" stroke="url(#paint1_linear_184_8)" stroke-opacity="0.9" stroke-width="4" stroke-linecap="round"/>
<path d="M4.34465 14V7H7.76465C8.64465 7 9.30465 7.16667 9.74465 7.5C10.1913 7.83333 10.4146 8.27333 10.4146 8.82C10.4146 9.18667 10.3246 9.50667 10.1446 9.78C9.96465 10.0467 9.71798 10.2533 9.40465 10.4C9.09132 10.5467 8.73132 10.62 8.32465 10.62L8.51465 10.21C8.95465 10.21 9.34465 10.2833 9.68465 10.43C10.0246 10.57 10.288 10.78 10.4746 11.06C10.668 11.34 10.7646 11.6833 10.7646 12.09C10.7646 12.69 10.528 13.16 10.0546 13.5C9.58132 13.8333 8.88465 14 7.96465 14H4.34465ZM5.95465 12.78H7.84465C8.26465 12.78 8.58132 12.7133 8.79465 12.58C9.01465 12.44 9.12465 12.22 9.12465 11.92C9.12465 11.6267 9.01465 11.41 8.79465 11.27C8.58132 11.1233 8.26465 11.05 7.84465 11.05H5.83465V9.87H7.56465C7.95798 9.87 8.25798 9.80333 8.46465 9.67C8.67798 9.53 8.78465 9.32 8.78465 9.04C8.78465 8.76667 8.67798 8.56333 8.46465 8.43C8.25798 8.29 7.95798 8.22 7.56465 8.22H5.95465V12.78ZM11.9911 14V7H15.0211C15.6478 7 16.1878 7.10333 16.6411 7.31C17.0945 7.51 17.4445 7.8 17.6911 8.18C17.9378 8.56 18.0611 9.01333 18.0611 9.54C18.0611 10.06 17.9378 10.51 17.6911 10.89C17.4445 11.27 17.0945 11.5633 16.6411 11.77C16.1878 11.97 15.6478 12.07 15.0211 12.07H12.8911L13.6111 11.34V14H11.9911ZM13.6111 11.52L12.8911 10.75H14.9311C15.4311 10.75 15.8045 10.6433 16.0511 10.43C16.2978 10.2167 16.4211 9.92 16.4211 9.54C16.4211 9.15333 16.2978 8.85333 16.0511 8.64C15.8045 8.42667 15.4311 8.32 14.9311 8.32H12.8911L13.6111 7.55V11.52Z" fill="black"/>
<defs>
<linearGradient id="paint0_linear_184_8" x1="10.6001" y1="2" x2="10.6001" y2="18" gradientUnits="userSpaceOnUse">
<stop stop-color="#F85A3E"/>
<stop offset="1" stop-color="#FF7733"/>
</linearGradient>
<linearGradient id="paint1_linear_184_8" x1="10.6001" y1="18" x2="10.6001" y2="2" gradientUnits="userSpaceOnUse">
<stop stop-color="#F85A3E"/>
<stop offset="1" stop-color="#FF7733"/>
</linearGradient>
</defs>
</svg>
