<svg width="111" height="24" viewBox="0 0 111 24" fill="none" xmlns="http://www.w3.org/2000/svg">
<path d="M0.656 23V0.599998H10.352C12.3573 0.599998 14.0853 0.930665 15.536 1.592C16.9867 2.232 18.1067 3.16 18.896 4.376C19.6853 5.592 20.08 7.04267 20.08 8.728C20.08 10.392 19.6853 11.832 18.896 13.048C18.1067 14.2427 16.9867 15.16 15.536 15.8C14.0853 16.44 12.3573 16.76 10.352 16.76H3.536L5.84 14.488V23H0.656ZM14.896 23L9.296 14.872H14.832L20.496 23H14.896ZM5.84 15.064L3.536 12.632H10.064C11.664 12.632 12.8587 12.2907 13.648 11.608C14.4373 10.904 14.832 9.944 14.832 8.728C14.832 7.49067 14.4373 6.53067 13.648 5.848C12.8587 5.16533 11.664 4.824 10.064 4.824H3.536L5.84 2.36V15.064ZM28.9553 9.624H39.7393V13.656H28.9553V9.624ZM29.3393 18.84H41.5312V23H24.1873V0.599998H41.1153V4.76H29.3393V18.84ZM42.712 23L52.696 0.599998H57.816L67.832 23H62.392L54.2 3.224H56.248L48.024 23H42.712ZM47.704 18.2L49.08 14.264H60.6L62.008 18.2H47.704ZM80.5635 23.384C78.8355 23.384 77.2248 23.1067 75.7315 22.552C74.2595 21.976 72.9795 21.1653 71.8915 20.12C70.8035 19.0747 69.9502 17.848 69.3315 16.44C68.7342 15.032 68.4355 13.4853 68.4355 11.8C68.4355 10.1147 68.7342 8.568 69.3315 7.16C69.9502 5.752 70.8035 4.52533 71.8915 3.48C73.0008 2.43467 74.2915 1.63467 75.7635 1.08C77.2355 0.503999 78.8462 0.216 80.5955 0.216C82.5368 0.216 84.2862 0.557333 85.8435 1.24C87.4222 1.90133 88.7448 2.88267 89.8115 4.184L86.4835 7.256C85.7155 6.38133 84.8622 5.73067 83.9235 5.304C82.9848 4.856 81.9608 4.632 80.8515 4.632C79.8062 4.632 78.8462 4.80267 77.9715 5.144C77.0968 5.48533 76.3395 5.976 75.6995 6.616C75.0595 7.256 74.5582 8.01333 74.1955 8.888C73.8542 9.76267 73.6835 10.7333 73.6835 11.8C73.6835 12.8667 73.8542 13.8373 74.1955 14.712C74.5582 15.5867 75.0595 16.344 75.6995 16.984C76.3395 17.624 77.0968 18.1147 77.9715 18.456C78.8462 18.7973 79.8062 18.968 80.8515 18.968C81.9608 18.968 82.9848 18.7547 83.9235 18.328C84.8622 17.88 85.7155 17.208 86.4835 16.312L89.8115 19.384C88.7448 20.6853 87.4222 21.6773 85.8435 22.36C84.2862 23.0427 82.5262 23.384 80.5635 23.384ZM97.7335 23V4.824H90.5655V0.599998H110.086V4.824H102.918V23H97.7335Z" fill="black"/>
</svg>
